<svg version="1.2" xmlns="http://www.w3.org/2000/svg" viewBox="0 0 749 248" width="144" height="48">
	<title>logo-white-svg</title>
	<style>
		.s0 { fill: #ffffff } 
		.s1 { fill: #ff5555 } 
		.s2 { fill: #444444 } 
	</style>
	<g>
		<path class="s0" d="m307.6 133q0 4.3 2.7 6 2.7 1.8 7.6 1.8 2.4 0 5-0.4 2.6-0.4 4.6-1 1.5 1.8 2.5 3.9 1.1 2.3 1.1 5.3 0 6.2-4.7 10.2-4.6 3.9-16.4 3.9-14.3 0-22.1-6.5-7.7-6.6-7.7-21.2v-69.8q1.8-0.5 5.1-1.1 3.4-0.6 7.1-0.6 7.2 0 11.2 2.6 4 2.5 4 10.6v10.5h21.3q1 1.8 1.9 4.5 0.9 2.6 0.9 5.9 0 5.7-2.5 8.2-2.5 2.6-6.8 2.6h-14.8z"/>
		<path fill-rule="evenodd" class="s0" d="m377.7 78.5q8.8 0 16.1 1.8 7.2 1.8 12.4 5.5 5.1 3.7 7.9 9.3 2.7 5.6 2.7 13.3v36.5q0 4.3-2.3 6.9-2.4 2.7-5.6 4.7-10.6 6.4-29.9 6.4-8.6-0.1-15.6-1.7-6.9-1.6-11.9-4.9-4.9-3.2-7.6-8.3-2.7-5-2.7-11.7 0-11.3 6.7-17.3 6.7-6 20.7-7.5l21.3-2.3v-1.1q0-4.8-4.1-6.8-4.2-2-12-2-6.2 0-12.1 1.3-5.8 1.3-10.6 3.2-2.1-1.4-3.6-4.5-1.4-3-1.4-6.2 0-4.3 2-6.8 2-2.5 6.3-4.3 4.7-1.8 11.2-2.6 6.4-0.9 12.1-0.9zm1.3 64.1q2.8 0 6.1-0.5 3.4-0.6 5-1.6v-13l-11.7 0.9q-4.6 0.4-7.5 2-3 1.6-3 4.9 0 3.2 2.5 5.3 2.6 2 8.6 2z"/>
		<path class="s0" d="m500.7 136.6q0 12.4-9.3 19.4-9.3 7-27.4 7-6.9 0-12.7-1-5.9-0.9-10.1-3-4.1-2-6.5-5.1-2.3-3.1-2.3-7.4 0-3.9 1.6-6.6 1.6-2.6 3.9-4.4 4.7 2.6 10.8 4.6 6.2 2.1 14.2 2.1 5 0 7.7-1.5 2.7-1.5 2.7-3.9 0-2.3-2-3.6-1.9-1.3-6.5-2.1l-4.9-1q-14.2-2.8-21.1-8.7-6.9-6-6.9-17.1 0-6 2.6-10.9 2.6-4.9 7.3-8.2 4.7-3.2 11.4-5 6.6-1.8 14.5-1.8 6.1 0 11.4 0.9 5.3 0.9 9.2 2.7 3.9 1.8 6.2 4.6 2.3 2.9 2.3 6.8c0 2.6-0.5 4.6-1.4 6.4q-1.4 2.7-3.5 4.5-1.3-0.8-3.9-1.7-2.7-0.9-5.8-1.6-3.1-0.8-6.2-1.2-3.2-0.5-5.8-0.5-5.4 0-8.3 1.2-3 1.2-3 3.8 0 1.8 1.6 3 1.7 1.1 6.2 2.1l5.1 1.1q15.7 3.6 22.3 9.9 6.6 6.3 6.6 16.2z"/>
		<path class="s0" d="m591.5 145.9q-0.8 7.7-4.5 11.7-3.6 4.1-10.6 4.1-5.3 0-9.3-2.5-4.1-2.5-8.9-8.6l-16.1-20.2v29.7q-1.8 0.3-5.3 0.9-3.5 0.5-7.1 0.5-3.6 0.1-6.4-0.4-2.9-0.5-4.8-2-2-1.5-3.1-4-1-2.5-1-6.6v-94.4q1.8-0.5 5.3-1.1 3.5-0.6 7.1-0.6 3.6 0 6.4 0.5 2.9 0.5 4.8 2 2 1.5 3.1 4 1 2.5 1 6.6v43l28.1-28.7q8.4 0 13.6 3.8 5.1 3.7 5.1 9.5 0 2.4-0.8 4.4-0.8 2.1-2.5 4.2-1.7 2.1-4.4 4.5-2.7 2.3-6.3 5.4l-9.5 8.2z"/>
		<path fill-rule="evenodd" class="s0" d="m642.9 162.9q-9.6-0.1-17.9-2.7-8.2-2.7-14.3-8.1-6.1-5.4-9.6-13.5-3.6-8.2-3.6-19.1c0-7.3 1.2-13.4 3.6-18.5q3.5-7.8 9.2-12.8 5.7-4.9 13-7.3 7.4-2.4 15-2.4 8.7 0 15.8 2.7 7.1 2.6 12.2 7.1 5.1 4.6 8 11 2.8 6.3 2.8 13.8 0 5.6-3.1 8.5-3.1 2.9-8.6 3.8l-40.3 6q1.8 5.4 7.4 8.1 5.5 2.6 12.7 2.6 6.7 0 12.6-1.7 6-1.7 9.7-4 2.6 1.7 4.4 4.6 1.8 2.9 1.8 6.2 0 7.3-6.8 10.9-5.3 2.8-11.8 3.8-6.5 1-12.2 1zm-4.6-64.1q-3.9 0-6.8 1.3-2.8 1.3-4.6 3.3-1.8 2.1-2.7 4.6-0.9 2.5-1.1 5.1l27.9-4.5q-0.5-3.3-3.6-6.6-3.1-3.2-9.1-3.2z"/>
		<path class="s0" d="m718.2 160.1q-1.6 0.5-5.1 1-3.5 0.5-7.3 0.5c-2.5 0-4.5-0.2-6.4-0.5q-2.9-0.5-4.8-2-2-1.5-3-4-1.1-2.5-1.1-6.6v-48.9q0-3.8 1.4-6.5 1.4-2.7 4-4.8 2.6-2.1 6.4-3.8 3.9-1.7 8.3-3 4.4-1.3 9.1-2.1 4.7-0.7 9.4-0.7 7.9 0 12.4 3 4.6 3 4.6 9.9 0 2.3-0.6 4.5-0.7 2.2-1.7 4-3.4 0-7 0.3-3.6 0.3-7 1-3.4 0.6-6.4 1.4-3 0.7-5.2 1.7z"/>
	</g>
	<g>
		<path class="s1" d="m51.7 4.1h142.7c27 0 48.8 21.9 48.8 48.8v142.7c0 27-21.8 48.8-48.8 48.8h-142.7c-26.9 0-48.8-21.8-48.8-48.8v-142.7c0-26.9 21.9-48.8 48.8-48.8z"/>
		<g>
			<path class="s2" d="m52 51.8h142.2c7.3 0 13.3 5.9 13.3 13.2v25.7c0 7.3-6 13.2-13.3 13.2h-142.2c-7.4 0-13.3-5.9-13.3-13.2v-25.7c0-7.3 5.9-13.2 13.3-13.2z"/>
			<path class="s2" d="m111.2 52.4h23.7c8.1 0 14.7 6.6 14.7 14.7v128c0 8.1-6.6 14.7-14.7 14.7h-23.7c-8.1 0-14.7-6.6-14.7-14.7v-128c0-8.1 6.6-14.7 14.7-14.7z"/>
			<path class="s1" d="m60.2 69.3h125.8c2.6 0 4.7 2.1 4.7 4.8v7.5c0 2.7-2.1 4.8-4.7 4.8h-125.8c-2.6 0-4.8-2.1-4.8-4.8v-7.5c0-2.7 2.2-4.8 4.8-4.8z"/>
			<path class="s1" d="m116.3 85.3h11.7c1.8 0 3.3 1.5 3.3 3.3v98.1c0 1.9-1.5 3.3-3.3 3.3h-11.7c-1.8 0-3.3-1.4-3.3-3.3v-98.1c0-1.8 1.5-3.3 3.3-3.3z"/>
			<path class="s1" d="m149.6 86.4h18.2v18.2h-18.2z"/>
		</g>
	</g>
	<g>
		<path class="s1" d="m292.8 205.1q-3.3 0-6.2-1-3-1-4.7-2.6l1.5-3.1q1.6 1.4 4.1 2.3 2.6 1 5.3 1 2.5 0 4-0.6 1.6-0.6 2.3-1.6 0.8-1 0.8-2.2 0-1.5-1-2.4-1-0.9-2.5-1.5-1.5-0.5-3.4-0.9-1.8-0.4-3.6-1-1.9-0.5-3.4-1.4-1.6-0.8-2.5-2.3-0.9-1.4-0.9-3.7c0-1.5 0.3-2.8 1.1-4.1q1.2-1.8 3.6-3 2.4-1.1 6.2-1.1 2.5 0 4.9 0.7 2.5 0.6 4.3 1.9l-1.4 3.2q-1.8-1.2-3.8-1.8-2.1-0.5-4-0.5-2.4 0-3.9 0.6-1.6 0.6-2.3 1.6-0.7 1.1-0.7 2.3 0 1.5 0.9 2.4 1 0.9 2.5 1.5 1.6 0.5 3.4 0.9 1.8 0.4 3.7 1 1.8 0.5 3.4 1.4 1.5 0.8 2.4 2.2 1 1.5 1 3.7c0 1.5-0.4 2.8-1.2 4q-1.2 1.9-3.7 3-2.4 1.1-6.2 1.1z"/>
		<path class="s1" d="m321.2 204.8v-25h-9.8v-3.6h23.6v3.6h-9.8v25z"/>
		<path fill-rule="evenodd" class="s1" d="m339.8 204.8l12.9-28.6h4.1l12.9 28.6h-4.2l-3.2-7.1c0.9 0 1.4 0 1.4 0l-1.2-3.3h-1.6l-6.2-14-6.1 14h-2.2l-1.1 3.3c0 0 0.7 0 1.8 0l-3.1 7.1zm14.9-24.4l0.8-1.9h-1.6zm-7.6 17.3l1.5-3.3h12.3l1.4 3.3c-3.2 0-11.5 0-15.2 0z"/>
		<path class="s1" d="m385.3 204.8v-10.9l0.9 2.5-12.3-20.2h4.4l10.3 17h-2.4l10.4-17h4l-12.2 20.2 0.9-2.5v10.9z"/>
		<path fill-rule="evenodd" class="s1" d="m440.8 205.1q-3.2 0-6-1.1-2.8-1.1-4.9-3.1-2-1.9-3.1-4.6-1.2-2.6-1.2-5.8 0-3.1 1.2-5.8 1.1-2.6 3.1-4.6 2.1-2 4.8-3.1 2.8-1.1 6.1-1.1c2.2 0 4.2 0.4 6.1 1.1q2.7 1.1 4.8 3.1 2 1.9 3.1 4.6 1.2 2.7 1.1 5.8c0 2.1-0.3 4.1-1.1 5.8q-1.1 2.7-3.1 4.7-2.1 2-4.8 3-2.8 1.1-6.1 1.1zm0-3.6q2.4 0 4.4-0.8 2-0.9 3.5-2.3 1.5-1.5 2.3-3.5 0.9-2 0.9-4.4 0-2.3-0.9-4.3-0.8-2-2.3-3.5-1.5-1.5-3.5-2.3-2-0.8-4.4-0.8-2.4-0.1-4.4 0.8-2 0.8-3.5 2.3-1.5 1.5-2.4 3.5-0.8 2-0.8 4.3 0 2.4 0.8 4.4 0.9 2 2.4 3.5 1.5 1.5 3.5 2.3 2 0.8 4.4 0.8z"/>
		<path fill-rule="evenodd" class="s1" d="m468.3 176.3h11.1q3.8 0 6.4 1.1 2.7 1.2 4.1 3.5 1.5 2.2 1.5 5.3 0 3.1-1.5 5.3-1.4 2.3-4.1 3.4-0.3 0.2-0.7 0.3l6.7 9.6h-4.4l-6.1-8.8q-0.9 0.1-1.9 0.1h-7v8.7h-4.1zm4.1 19.8v-3.4h-1.8l1.6 1.8-1.6 1.6zm0-1.8v0.4l-0.2-0.2zm6.9-1.6q3.9 0 5.9-1.7 2.1-1.7 2.1-4.8 0-3-2.1-4.7-2-1.7-5.9-1.7h-6.9v12.9zm-7-12.9v-2l-1.8 2z"/>
		<path fill-rule="evenodd" class="s1" d="m516.9 205.1q0 0 0 0 0.1 0 0.1 0zm-6-1.1q-2.8-1-4.8-3-2.1-2-3.2-4.6-1.2-2.7-1.2-5.9 0-3.2 1.2-5.8 1.1-2.7 3.2-4.6 2-2 4.8-3.1 2.8-1.1 6.1-1.1c2.2 0 4.3 0.4 6.2 1.1q2.8 1.1 4.8 3.3l-2.5 2.6q-1.8-1.8-3.8-2.6-2.1-0.8-4.5-0.8c-1.6 0-3.2 0.3-4.6 0.9q-2.1 0.8-3.6 2.2-1.5 1.5-2.4 3.5-0.8 2-0.8 4.4 0 2.4 0.8 4.4 0.9 2 2.4 3.5 1.5 1.4 3.6 2.3 2.1 0.8 4.5 0.8 2.3 0 4.4-0.7 1.2-0.4 2.3-1.2v1.4l3.9 0.5q-2.1 1.8-4.9 2.7-2.9 0.9-5.9 0.9-3.3 0-6-1.1zm13-4.4v-9.2h3.9v11.1l-2.3-3.1q-0.8 0.7-1.6 1.2z"/>
		<path fill-rule="evenodd" class="s1" d="m537.3 204.8l13-28.6h4l13 28.6h-4.3l-3.2-7.1h1.4l-1.2-3.3h-1.6l-6.2-14-6.1 14h-2.2l-1.1 3.3h1.9l-3.2 7.1zm14.9-24.4l0.9-1.9h-1.7zm7.6 17.3l-1.4-3.3h-12.3l-1.5 3.3z"/>
		<path class="s1" d="m577.6 204.8v-28.6h3.4l18.8 23.5h-1.7v-23.5h4.1v28.6h-3.4l-18.9-23.5h1.8v23.5z"/>
		<path class="s1" d="m616.8 204.8v-28.6h4.1v28.6z"/>
		<path class="s1" d="m633.1 204.8v-2.8l19.2-23.8 0.4 1.6h-19.3v-3.6h23v2.8l-19.1 23.8-0.5-1.6h20.1v3.6z"/>
		<path fill-rule="evenodd" class="s1" d="m689.2 201.3v3.6h-20.7v-28.6h20.1v3.6h-16v8.8h-0.4v3.4h0.4v9.2zm-2.4-9.2v-3.4h-14.3v3.4zm-14.2 9.2v-0.1z"/>
		<path fill-rule="evenodd" class="s1" d="m701.9 176.2h12q4.6 0.1 8.1 1.8 3.5 1.8 5.4 5 2 3.3 2 7.5 0 4.2-2 7.5-1.9 3.2-5.4 5-3.5 1.8-8.1 1.8h-12zm4.1 25h7.7q3.6 0 6.2-1.4 2.5-1.3 4-3.8 1.4-2.4 1.4-5.6c0-2.1-0.5-4-1.4-5.6q-1.5-2.4-4-3.7-2.6-1.4-6.2-1.4h-7.7z"/>
	</g>
</svg>