<svg version="1.2" xmlns="http://www.w3.org/2000/svg" viewBox="0 0 801 266" width="144" height="48">
	<title>logo-black-svg</title>
	<style>
		.s0 { fill: #444444 } 
		.s1 { fill: #ff5555 } 
	</style>
	<g>
		<path class="s0" d="m329.6 142.4q0 4.5 2.8 6.4 2.9 1.9 8.2 1.9 2.6 0.1 5.4-0.4 2.8-0.4 4.9-1.1 1.5 1.9 2.7 4.3 1.1 2.3 1.1 5.6 0 6.7-5 10.9-5 4.2-17.5 4.2-15.4 0-23.7-7-8.3-7-8.3-22.7v-74.8q1.9-0.5 5.5-1.1 3.6-0.6 7.6-0.6 7.7 0 12 2.7 4.3 2.7 4.3 11.5v11.1h22.8q1.1 1.9 2 4.8 1 2.9 1 6.4 0 6.1-2.7 8.8-2.7 2.7-7.3 2.7h-15.8z"/>
		<path fill-rule="evenodd" class="s0" d="m421.9 86q7.8 1.9 13.3 5.8 5.5 4 8.5 10 2.9 6 2.9 14.2v39.1q0 4.6-2.5 7.4-2.5 2.9-6 5-11.4 6.8-32 6.8-9.2 0-16.6-1.7-7.5-1.8-12.8-5.3-5.3-3.5-8.2-8.9-2.9-5.4-2.9-12.5 0-12.1 7.2-18.5 7.1-6.5 22.2-8.1l22.8-2.4v-1.2q0-5.1-4.4-7.3-4.5-2.2-12.8-2.2-6.7 0-13 1.4-6.3 1.4-11.3 3.5-2.3-1.6-3.9-4.8-1.5-3.2-1.5-6.7 0-4.5 2.2-7.3 2.1-2.7 6.7-4.6 5-1.9 11.9-2.8 6.9-0.8 13-0.8 9.5 0 17.2 1.9zm-15.8 66.7q3 0 6.6-0.6 3.6-0.7 5.3-1.7v-14l-12.6 1.1q-4.9 0.3-8 2.1-3.1 1.7-3.1 5.2 0 3.5 2.7 5.7 2.7 2.2 9.1 2.2zm-1.4-68.6q-0.1 0-0.1 0 0-0.1 0 0z"/>
		<path class="s0" d="m536.3 146.2q0 13.3-10 20.8-9.9 7.5-29.3 7.5-7.3 0-13.6-1.1-6.3-1-10.7-3.2-4.5-2.2-7-5.5-2.6-3.3-2.6-7.8 0-4.2 1.8-7.1 1.7-2.9 4.2-4.8 5.1 2.8 11.6 5 6.5 2.2 15.1 2.1 5.4 0.1 8.3-1.5 2.9-1.6 2.9-4.2 0-2.5-2.1-3.8-2.1-1.4-7-2.3l-5.2-1.1q-15.2-2.9-22.7-9.3-7.4-6.4-7.4-18.3 0-6.4 2.8-11.7 2.8-5.2 7.9-8.7 5-3.5 12.1-5.4 7.1-1.9 15.6-1.9 6.5 0 12.2 0.9 5.7 1 9.9 2.9 4.1 1.9 6.6 5 2.4 3.1 2.4 7.2c0 2.9-0.5 5-1.4 6.9q-1.5 2.9-3.8 4.8-1.4-0.8-4.2-1.8-2.8-0.9-6.1-1.7-3.3-0.8-6.7-1.3-3.4-0.6-6.2-0.6-5.8 0-8.9 1.4-3.2 1.3-3.2 4.1 0 1.9 1.8 3.1 1.7 1.2 6.6 2.3l5.4 1.2q16.8 3.8 23.9 10.5 7.1 6.8 7 17.4z"/>
		<path class="s0" d="m633.6 156.2q-0.9 8.2-4.8 12.5-4 4.4-11.5 4.4-5.6 0-9.9-2.7-4.4-2.7-9.5-9.2l-17.3-21.6v31.7q-1.9 0.4-5.6 1-3.8 0.6-7.6 0.6-3.9 0-6.9-0.5-3.1-0.5-5.2-2.1-2.1-1.6-3.2-4.3-1.1-2.7-1.1-7v-101.1q1.9-0.6 5.6-1.2 3.8-0.6 7.6-0.6 3.9 0 6.9 0.5 3.1 0.6 5.2 2.1 2.1 1.6 3.2 4.3 1.1 2.7 1.1 7.1v46.1l30.1-30.8q9 0 14.5 4.1 5.6 4 5.5 10.1 0 2.6-0.8 4.8-0.9 2.2-2.7 4.4-1.8 2.3-4.7 4.8-2.9 2.6-6.8 5.9l-10.1 8.7c0 0 27.9 28 28 28z"/>
		<path fill-rule="evenodd" class="s0" d="m688.6 174.3q-10.3 0-19.2-2.9-8.8-2.8-15.3-8.6-6.6-5.8-10.3-14.5-3.8-8.7-3.8-20.4c0-7.8 1.3-14.3 3.8-19.8q3.7-8.3 9.8-13.7 6.1-5.3 14-7.8 7.9-2.6 16.1-2.6 9.2 0 16.8 2.8 7.6 2.8 13.1 7.7 5.5 4.9 8.6 11.7 3 6.8 3 14.9 0 5.9-3.3 9-3.3 3.2-9.3 4.1l-43.1 6.4q1.9 5.8 7.9 8.7 5.9 2.8 13.6 2.8 7.2 0 13.5-1.8 6.4-1.8 10.4-4.3 2.8 1.8 4.7 4.9 2 3.2 2 6.7 0 7.8-7.4 11.7-5.6 2.9-12.5 4-7 1-13.1 1zm-4.9-68.6q-4.2 0-7.3 1.4-3 1.4-5 3.6-1.9 2.2-2.8 4.9-1 2.7-1.2 5.5l29.9-4.9q-0.5-3.5-3.9-7-3.3-3.5-9.7-3.5z"/>
		<path class="s0" d="m769.2 171.4q-1.7 0.5-5.5 1-3.7 0.5-7.7 0.5c-2.7 0-4.9-0.2-6.9-0.5q-3.1-0.5-5.2-2.1-2.1-1.6-3.2-4.3-1.2-2.7-1.1-7v-52.4q-0.1-4 1.4-6.9 1.5-2.9 4.3-5.2 2.8-2.2 6.9-4.1 4.1-1.8 8.8-3.2 4.7-1.4 9.8-2.2 5.1-0.8 10.1-0.8 8.4 0 13.3 3.3 4.9 3.2 4.9 10.5 0 2.5-0.7 4.8-0.7 2.4-1.8 4.3-3.6 0-7.5 0.4-3.8 0.3-7.5 1-3.6 0.7-6.9 1.5-3.2 0.8-5.5 1.8z"/>
	</g>
	<g>
		<path class="s1" d="m55.6 4.4h152.8c28.8 0 52.2 23.3 52.2 52.2v152.8c0 28.9-23.4 52.3-52.2 52.3h-152.8c-28.9 0-52.3-23.4-52.3-52.3v-152.8c0-28.9 23.4-52.2 52.3-52.2z"/>
		<g>
			<path class="s0" d="m55.8 55.4h152.3c7.8 0 14.2 6.4 14.2 14.2v27.4c0 7.9-6.4 14.2-14.2 14.2h-152.3c-7.8 0-14.2-6.3-14.2-14.2v-27.4c0-7.8 6.4-14.2 14.2-14.2z"/>
			<path class="s0" d="m119.3 56h25.3c8.7 0 15.8 7.1 15.8 15.8v137c0 8.7-7.1 15.7-15.8 15.7h-25.3c-8.7 0-15.8-7-15.8-15.7v-137c0-8.7 7.1-15.8 15.8-15.8z"/>
			<path class="s1" d="m64.6 74.2h134.7c2.8 0 5.1 2.2 5.1 5v8.2c0 2.8-2.3 5-5.1 5h-134.7c-2.8 0-5-2.2-5-5v-8.2c0-2.8 2.2-5 5-5z"/>
			<path class="s1" d="m124.8 91.3h12.4c2 0 3.6 1.5 3.6 3.5v105.1c0 2-1.6 3.5-3.6 3.5h-12.4c-2 0-3.6-1.5-3.6-3.5v-105.1c0-2 1.6-3.5 3.6-3.5z"/>
			<path class="s1" d="m160.4 92.4h19.4v19.5h-19.4z"/>
		</g>
	</g>
	<g>
		<path class="s1" d="m313.7 219.6q-3.5 0-6.7-1.1-3.2-1.1-5-2.8l1.6-3.4q1.8 1.5 4.5 2.6 2.7 1 5.6 1 2.7 0 4.3-0.7 1.7-0.6 2.5-1.6 0.8-1.1 0.8-2.5 0-1.5-1.1-2.5-1-1-2.6-1.5-1.7-0.6-3.6-1.1-2-0.4-4-1-2-0.6-3.6-1.5-1.6-0.9-2.6-2.5-1-1.5-1-4c0-1.6 0.4-3 1.2-4.3q1.2-2 3.8-3.2 2.6-1.2 6.7-1.2 2.6 0 5.2 0.7 2.7 0.7 4.6 2l-1.5 3.5q-1.9-1.3-4.1-1.9-2.2-0.6-4.2-0.6-2.6 0-4.3 0.7-1.6 0.6-2.4 1.7-0.8 1.1-0.8 2.5 0 1.6 1.1 2.5 1 1 2.6 1.6 1.7 0.5 3.6 1 2 0.5 4 1 2 0.6 3.6 1.5 1.6 0.9 2.6 2.5 1 1.5 1 3.9c0 1.6-0.4 3-1.2 4.3q-1.3 2-3.9 3.2-2.7 1.2-6.7 1.2z"/>
		<path class="s1" d="m344.1 219.2v-26.7h-10.5v-3.8h25.3v3.8h-10.5v26.7z"/>
		<path fill-rule="evenodd" class="s1" d="m364 219.2l13.9-30.5h4.3l13.9 30.5h-4.6l-3.4-7.6q0.1 0 0.1 0c0.8 0 1.4 0 1.4 0l-1.3-3.5h-1.7l-6.6-15-6.6 15h-2.3l-1.2 3.5c0 0 0.8 0 2 0l-3.4 7.6zm16-26.1l0.9-2h-1.8zm6.6 15h-13.1l-1.6 3.5c4 0 12.6 0 16.2 0q0.1 0 0.1 0z"/>
		<path class="s1" d="m412.7 219.2v-11.7l1 2.7-13.1-21.5h4.6l11.1 18.2h-2.5l11-18.2h4.4l-13.1 21.5 0.9-2.7v11.7z"/>
		<path fill-rule="evenodd" class="s1" d="m472.2 219.6q-3.5 0-6.5-1.2-3-1.2-5.1-3.3-2.2-2.1-3.4-5-1.3-2.8-1.3-6.2 0-3.3 1.3-6.2 1.2-2.8 3.4-4.9 2.1-2.1 5.1-3.3 3-1.2 6.5-1.2c2.4 0 4.5 0.4 6.5 1.2q2.9 1.1 5.1 3.2 2.2 2.2 3.4 5 1.2 2.9 1.2 6.2 0 3.4-1.2 6.3-1.2 2.8-3.4 4.9-2.2 2.1-5.1 3.3-3 1.2-6.5 1.2zm0-3.9q2.6 0 4.7-0.9 2.2-0.9 3.8-2.5 1.6-1.6 2.5-3.7 0.9-2.1 0.9-4.7 0-2.5-0.9-4.6-0.9-2.1-2.5-3.7-1.6-1.7-3.8-2.5-2.1-0.9-4.7-0.9c-1.7 0-3.3 0.3-4.7 0.9q-2.2 0.8-3.8 2.5-1.6 1.6-2.5 3.7-0.9 2.1-0.9 4.6 0 2.6 0.9 4.7 0.9 2.1 2.5 3.7 1.6 1.6 3.8 2.5 2.1 0.9 4.7 0.9z"/>
		<path fill-rule="evenodd" class="s1" d="m501.6 219.2v-30.5h12q4 0 6.8 1.2 2.8 1.3 4.4 3.7 1.5 2.4 1.5 5.7 0 3.3-1.5 5.7-1.6 2.4-4.4 3.7-0.4 0.1-0.8 0.3l7.2 10.2h-4.7l-6.6-9.4q-0.9 0.1-1.9 0.1h-7.6v9.3zm4.4-9.3v-2l-0.2 0.2 0.2 0.3v-2.2h-2l1.8 1.9-1.8 1.8zm7.5-3.7q4.2 0 6.3-1.8 2.2-1.8 2.2-5.1 0-3.3-2.2-5-2.1-1.8-6.3-1.8h-7.4v-2.2l-2 2.2h1.9v13.7z"/>
		<path fill-rule="evenodd" class="s1" d="m553.7 219.6q-3.5 0-6.5-1.2-3-1.1-5.1-3.3-2.2-2.1-3.4-4.9-1.3-2.8-1.3-6.2 0-3.5 1.3-6.3 1.2-2.8 3.4-4.9 2.2-2.2 5.1-3.3 3-1.2 6.6-1.2 3.6 0 6.6 1.2 3 1.2 5.1 3.6l-2.7 2.7q-1.8-1.9-4.1-2.7-2.2-0.9-4.7-0.9c-1.8 0-3.4 0.3-4.9 0.9q-2.2 0.9-3.9 2.5-1.6 1.5-2.5 3.7-0.9 2.1-0.9 4.7 0 2.5 0.9 4.6 0.9 2.2 2.5 3.8 1.7 1.6 3.9 2.4 2.2 0.9 4.8 0.9 2.5 0 4.7-0.7 1.3-0.5 2.5-1.3v1.4l4.2 0.6q-2.3 1.9-5.3 2.9-3.1 1-6.3 1zm9.1-7.2l2.5 3.3v-11.9h-4.2v10q0.9-0.6 1.7-1.4z"/>
		<path fill-rule="evenodd" class="s1" d="m575.5 219.2l13.9-30.5h4.3l13.9 30.5h-4.6l-3.4-7.6h1.5l-1.3-3.5h-1.7l-6.6-15-6.6 15h-2.3l-1.2 3.5h2l-3.4 7.6zm16-26.1l0.9-2h-1.8zm6.6 15h-13.1l-1.6 3.5h16.3z"/>
		<path class="s1" d="m618.7 219.2v-30.5h3.5l20.3 25.1h-1.9v-25.1h4.3v30.5h-3.5l-20.3-25.1h1.9v25.1z"/>
		<path class="s1" d="m660.7 219.2v-30.5h4.3v30.5z"/>
		<path class="s1" d="m678 219.2v-2.9l20.6-25.5 0.5 1.7h-20.8v-3.8h24.7v2.9l-20.5 25.5-0.5-1.7h21.6v3.8z"/>
		<path fill-rule="evenodd" class="s1" d="m720.3 215.4h17.8v3.8h-22.1v-30.5h21.5v3.8h-17.2v9.3h-0.4v3.8h0.4zm0-9.9v-3.7h15.4v3.7z"/>
		<path fill-rule="evenodd" class="s1" d="m751.8 219.2v-30.5h12.8q4.9 0 8.7 1.9 3.7 1.9 5.8 5.4 2 3.4 2 7.9 0 4.6-2 8-2.1 3.5-5.8 5.4-3.8 1.9-8.7 1.9zm4.4-3.8h8.3q3.7 0 6.5-1.4 2.8-1.5 4.3-4.1 1.6-2.6 1.6-6c0-2.2-0.6-4.3-1.6-6q-1.5-2.6-4.3-4-2.8-1.4-6.5-1.4h-8.3z"/>
	</g>
</svg>