<svg version="1.2" xmlns="http://www.w3.org/2000/svg" viewBox="0 0 390 390" width="100" height="100">
	<title>icon-dark-raw-svg</title>
	<style>
		.s0 { fill: #ff5555 } 
		.s1 { fill: #444444 } 
	</style>
	<path class="s0" d="m81.4 2.7h227.9c43.1 0 78 34.9 78 77.9v228c0 43.1-34.9 78-78 78h-227.9c-43.1 0-78-34.9-78-78v-228c0-43 34.9-77.9 78-77.9z"/>
	<g>
		<path class="s1" d="m81.8 78.8h227.2c11.7 0 21.2 9.5 21.2 21.2v40.9c0 11.7-9.5 21.2-21.2 21.2h-227.2c-11.8 0-21.2-9.5-21.2-21.2v-40.9c0-11.7 9.4-21.2 21.2-21.2z"/>
		<path class="s1" d="m176.4 79.8h37.9c13 0 23.5 10.5 23.5 23.4v204.5c0 13-10.5 23.5-23.5 23.5h-37.9c-12.9 0-23.5-10.5-23.5-23.5v-204.5c0-12.9 10.6-23.4 23.5-23.4z"/>
		<path class="s0" d="m94.9 106.9h200.9c4.2 0 7.6 3.3 7.6 7.5v12.2c0 4.1-3.4 7.5-7.6 7.5h-200.9c-4.2 0-7.6-3.4-7.6-7.5v-12.2c0-4.2 3.4-7.5 7.6-7.5z"/>
		<path class="s0" d="m184.6 132.4h18.6c2.9 0 5.3 2.3 5.3 5.3v156.7c0 3-2.4 5.3-5.3 5.3h-18.6c-2.9 0-5.3-2.3-5.3-5.3v-156.7c0-3 2.4-5.3 5.3-5.3z"/>
		<path class="s0" d="m237.8 134.1h29v29h-29z"/>
	</g>
</svg>